<?xml version="1.0" encoding="UTF-8" standalone="no"?><!DOCTYPE svg PUBLIC "-//W3C//DTD SVG 1.1//EN" "http://www.w3.org/Graphics/SVG/1.1/DTD/svg11.dtd"><svg width="100%" height="100%" viewBox="0 0 540 540" version="1.1" xmlns="http://www.w3.org/2000/svg" xmlns:xlink="http://www.w3.org/1999/xlink" xml:space="preserve" xmlns:serif="http://www.serif.com/" style="fill-rule:evenodd;clip-rule:evenodd;stroke-linecap:round;stroke-linejoin:round;stroke-miterlimit:1.5;"><rect id="Artboard2" x="0" y="0" width="540" height="540" style="fill:none;"/><g id="Layer2"><ellipse cx="330.788" cy="148.652" rx="116.621" ry="115.649" style="fill:#ffd045;stroke:#6f3900;stroke-width:2px;"/><path d="M332.732,112.271c7.944,-1.222 15.797,6.761 17.526,17.815c1.728,11.054 -3.318,21.021 -11.262,22.242c-7.944,1.222 -15.797,-6.761 -17.526,-17.815c-1.729,-11.054 3.318,-21.02 11.262,-22.242Z" style="fill:#6f3900;stroke:#6f3900;stroke-width:2px;"/><ellipse cx="331.43" cy="122.023" rx="3.213" ry="3.983" style="fill:#e4e9f5;stroke:#e4e9f5;stroke-width:2px;"/><path d="M424.423,108.924c3.31,-0.568 7.142,5.548 8.554,13.648c1.412,8.101 -0.129,15.137 -3.438,15.704c-3.31,0.568 -7.143,-5.548 -8.554,-13.648c-1.412,-8.101 0.129,-15.137 3.438,-15.704Z" style="fill:#6f3900;stroke:#6f3900;stroke-width:2px;"/><path d="M424.767,112.585c0.599,-0.096 1.254,0.86 1.462,2.133c0.208,1.274 -0.109,2.386 -0.707,2.482c-0.598,0.096 -1.253,-0.859 -1.461,-2.133c-0.209,-1.273 0.108,-2.385 0.706,-2.482Z" style="fill:#e4e9f5;stroke:#e4e9f5;stroke-width:2px;"/><g id="Layer1"><path d="M427.955,192.699c1.119,0.637 3.776,-0.015 4.985,-0.115c4.079,-0.337 8.247,0.141 12.35,-0.13c8.311,-0.55 17.166,-3.082 23.255,-9.121c6.794,-6.737 10.125,-15.543 12.088,-24.624c0.691,-3.199 1.638,-7.181 0.657,-10.423c-1.686,-5.571 -5.349,-10.104 -9.986,-13.681c-6.815,-5.257 -13.348,-5.231 -21.435,-4.085c-2.483,0.352 -8.205,1.843 -10.474,2.967c-4.036,2.002 -7.674,3.656 -11.722,5.663c-7.536,3.736 -16.607,4.828 -23.979,8.889c-6.944,3.826 -11.264,10.167 -18.578,13.275c-9.808,4.169 -19.421,8.874 -29.824,11.466c-10.22,2.546 -19.725,7.772 -21.092,16.98c-0.438,2.955 -0.275,6.034 0.786,9.189c0.447,1.331 1.391,2.772 4.327,5.022c3.839,2.94 5.662,4.012 10.198,5.811c6.981,2.769 13.992,4.147 21.153,6.514c2.347,0.776 4.992,0.652 7.357,1.434c11.655,3.852 24.568,5.912 36.788,7.166c4.971,0.509 9.988,0.521 14.978,0.521c3.024,-0 6.66,0.317 9.591,-0.652c1.668,-0.551 3.937,-0.893 5.522,-1.619c4.883,-2.235 11.815,-7.861 12.872,-13.625c0.83,-4.527 -0.562,-10.174 -4.073,-13.159c-1.241,-1.054 -2.723,-2.466 -4.336,-2.866c-0.265,-0.066 -1.314,-0.375 -1.314,-0.261c0,0.114 -20.094,-0.536 -20.094,-0.536Z" style="fill:#ff8e00;stroke:#6f3900;stroke-width:2px;"/><path d="M446.868,185.311c1.338,-0.419 2.178,-0.947 2.33,-1.003c1.116,-0.415 0.174,0.007 1.212,-0.508c2.529,-1.254 4.739,-1.538 6.722,-3.504c1.22,-1.21 3.059,-2.249 4.253,-3.475c1.705,-1.75 2.919,-2.787 3.855,-3.799c1.823,-1.97 2.463,-4.111 3.153,-5.651c1.759,-3.925 2.658,-11.159 -3.015,-14.534c-1.893,-1.126 -5.996,-0.533 -7.979,-0.061c-4.212,1.002 -6.588,2.873 -10.618,4.402c-10.015,3.802 -17.207,11.459 -25.855,17.425c-8.097,5.585 -19.538,11.226 -28.887,14.14c-7.545,2.351 -14.769,3.881 -22.556,4.954c-2.113,0.291 -7.482,-0.317 -9.357,0.613c-0.485,0.24 0.982,-0.106 1.453,0.161c0.441,0.25 1.049,0.427 2.239,0.779c2.5,0.739 3.804,1.056 6.137,2.002c5.406,2.193 11.138,4.697 16.716,6.458c8.114,2.562 17.268,4.737 25.856,6.239c4.033,0.706 9.147,1.013 13.224,1.122c5.192,0.139 14.371,-0.869 19.015,-3.658c2.585,-1.552 2.681,-8.525 -0.32,-10.509c-3.455,-2.284 -8.257,-2.789 -12.162,-2.203c-6.052,0.908 -13.089,-0.918 -19.997,0.464c-5.271,1.054 29.587,-8.29 34.581,-9.854Z" style="fill:#ff6b00;stroke:#6f3900;stroke-width:2px;"/></g><path d="M192.436,232.517c-4.962,-1.14 -13.886,-3.391 -17.107,-4.414c-9.747,-3.095 -10.607,-2.204 -20.333,-5.507c-7.88,-2.676 -11.963,-9.778 -17.833,-14.876c-10.146,-8.814 -0.322,-25.622 -16.02,-28.349c-4.583,-0.796 -8.075,1.615 -12.883,4.144c-8.671,4.563 -10.038,9.281 -12.076,11.475c-8.767,9.445 -9.332,13.168 -11.002,15.917c-14.356,23.622 -2.608,5.577 -12.344,25.311c-10.114,20.498 -16.168,41.697 -19.785,63.686c-1.982,12.056 -0.659,24.916 0.873,36.898c1.113,8.698 5.013,15.571 8.438,23.503c18.956,43.909 71.219,65.082 121.615,73.29c18.572,3.025 23.169,4.391 41.952,5.019c3.968,0.132 10.204,0.503 25.464,1.084c15.8,0.601 32.567,-1.469 48.089,-2.818c21.533,-1.87 42.582,-3.795 63.121,-10.092c13.532,-4.148 26.773,-8.871 38.302,-16.154c12.631,-7.979 22.341,-18.734 32.121,-29.353c3.486,-3.784 7.663,-13.406 9.07,-18.032c15.396,-50.631 3.858,-86.485 -32.055,-117.68c-10.229,-8.885 -29.102,0.319 -43.067,2.407c-12.279,1.835 -23.95,3.085 -36.343,4.282c-19.829,1.913 -27.288,0.842 -46.154,-3.043c-20.605,-4.242 -20.758,-6.864 -39.154,-18.397c-4.192,-2.628 -27.418,4.347 -33.27,2.998c-4.687,-1.08 -11.96,0.459 -19.619,-1.299Z" style="fill:#ffd045;stroke:#6f3900;stroke-width:2px;"/><path d="M162.293,324.28c-2.88,-0.516 -6.126,-2.093 -6.701,-2.455c-7.139,-4.493 -15.328,-8.949 -20.207,-16.031c-9.198,-13.354 -10.597,-40.249 6.296,-48.573c4.688,-2.309 11.217,-0.237 15.386,1.763c11.118,5.332 17.71,11.016 30.229,10.957c6.057,-0.028 12.106,-0.489 18.148,-0.9c21.784,-1.482 51.244,-6.94 67.46,12.839c3.056,3.728 5.091,8.217 7.097,12.6c2.01,4.391 3.763,8.939 4.909,13.63c2.08,8.518 2.409,19.491 1.297,28.157c-1.574,12.273 -4.085,20.392 -9.756,31.395c-1.905,3.696 -4.209,7.209 -6.818,10.447c-18.821,23.349 -50.806,24.201 -77.64,16.954c-11.366,-3.069 -22.872,-7.409 -32.125,-14.908c-9.85,-7.983 -17.728,-19.143 -23.721,-30.207c-4.547,-8.395 -6.212,-12.72 -7.818,-22.151c-0.793,-4.657 -1.439,-9.365 -1.546,-14.088c-0.111,-4.867 0.418,-9.732 0.895,-14.577c0.246,-2.504 0.359,-5.153 1.495,-7.398c0.545,-1.078 -0.567,-1.263 -0,0c0.738,1.646 1.515,3.773 2.197,5.443c1.787,4.376 3.218,8.374 6.525,11.752c5.175,5.284 12.963,10.666 18.244,13.153c1.086,0.512 2.334,1.11 3.472,1.493c0.273,0.092 3.709,0.889 2.682,0.705Z" style="fill:#ffd045;stroke:#6f3900;stroke-width:2px;"/><path d="M201.394,471.075c-0.767,0.524 -1.289,-1.869 -1.258,-2.433c0.123,-2.251 -0.119,-3.039 0.416,-5.218c0.883,-3.593 2.256,-5.804 5.187,-9.93c2.499,-3.516 5.592,-8.191 5.952,-12.618c0.253,-3.126 -4.918,-2.647 -6.861,-3.248c-3.015,-0.931 -6.197,-2.363 -9.275,-1.029c-2.386,1.034 -3.691,5.899 -4.321,7.885c-2.061,6.501 -1.96,9.294 -3.681,13.933c-1.688,4.552 -2.826,11.772 -6.22,15.319c-2.247,2.349 -7.519,6.486 -6.354,10.174c0.82,2.598 4.223,2.687 6.309,3.711c3.733,1.832 7.265,2.667 10.946,4.329c3.025,1.366 6.75,4.712 8.479,7.416c0.862,1.349 5.708,5.508 6.867,6.617c3.358,3.213 4.952,3.903 9.401,5.651c1.502,0.59 4.024,0.569 5.667,0.894c2.77,0.546 4.915,0.512 7.896,-0.615c5.419,-2.048 3.304,-8.182 1.154,-11.545c-0.304,-0.476 -2.307,-3.234 -1.61,-3.74c1.189,-0.862 2.832,0.51 4.105,0.428c1.762,-0.114 3.568,0.219 5.24,0.025c2.083,-0.243 2.481,-0.666 3.979,-0.914c0.976,-0.161 2.721,-1.512 3.528,-2.098c1.033,-0.749 2.023,-1.66 2.279,-3.269c0.296,-1.856 -2.058,-1.782 -3.125,-2.547c-2.331,-1.669 -3.301,-2.78 -6.749,-3.913c-2.481,-0.816 -4.209,-1.449 -5.259,-1.169c-1.41,0.376 2.841,-2.039 2.973,-2.146c0.603,-0.49 6.036,-5.662 3.873,-7.211c-0.833,-0.597 -4.604,-0.358 -5.502,-0.292c-4.379,0.322 -9.14,-0.17 -13.594,0.22c-5.497,0.48 -10.28,1.575 -15.747,0.373c-1.965,-0.433 -3.741,-1.726 -4.695,-3.04c-0.312,-0.43 -0.603,-0.559 -0.237,-0.619c0.13,-0.022 0.237,0.619 0.237,0.619Z" style="fill:#ff8e00;stroke:#6f3900;stroke-width:2px;"/><path d="M350.883,465.902c-0.544,0.753 -1.848,-1.321 -2.01,-1.861c-0.648,-2.159 -1.143,-2.818 -1.379,-5.05c-0.389,-3.679 0.151,-6.225 1.508,-11.101c1.157,-4.156 2.48,-9.603 1.315,-13.889c-0.822,-3.027 -5.524,-0.821 -7.556,-0.726c-3.151,0.147 -6.631,-0.12 -9.073,2.179c-1.893,1.783 -1.47,6.803 -1.388,8.885c0.268,6.814 1.311,9.406 1.267,14.355c-0.043,4.855 1.338,12.031 -0.651,16.52c-1.317,2.973 -4.871,8.653 -2.523,11.727c1.653,2.166 4.884,1.094 7.193,1.349c4.134,0.457 7.739,0.043 11.766,0.357c3.309,0.257 7.949,2.141 10.493,4.097c1.269,0.977 7.238,3.244 8.706,3.894c4.249,1.882 5.982,1.991 10.76,2.124c1.614,0.045 3.979,-0.83 5.634,-1.083c2.791,-0.426 4.797,-1.186 7.219,-3.258c4.402,-3.766 0.33,-8.818 -2.834,-11.252c-0.447,-0.344 -3.267,-2.259 -2.783,-2.971c0.825,-1.215 2.836,-0.482 4.006,-0.991c1.619,-0.705 3.431,-1.005 4.938,-1.755c1.876,-0.935 2.107,-1.468 3.432,-2.21c0.863,-0.483 2.046,-2.346 2.607,-3.17c0.717,-1.056 1.339,-2.249 1.034,-3.849c-0.353,-1.847 -2.541,-0.979 -3.804,-1.335c-2.76,-0.779 -4.049,-1.495 -7.677,-1.391c-2.611,0.075 -4.451,0.066 -5.344,0.686c-1.198,0.832 1.981,-2.882 2.068,-3.027c0.401,-0.666 3.756,-7.376 1.196,-8.098c-0.986,-0.279 -4.452,1.226 -5.275,1.593c-4.009,1.789 -8.655,2.943 -12.712,4.821c-5.007,2.317 -9.135,4.971 -14.685,5.695c-1.995,0.261 -4.105,-0.352 -5.448,-1.265c-0.44,-0.299 -0.757,-0.321 -0.434,-0.502c0.116,-0.064 0.434,0.502 0.434,0.502Z" style="fill:#ff8e00;stroke:#6f3900;stroke-width:2px;"/></g></svg>