<?xml version="1.0" encoding="UTF-8" standalone="no"?><!DOCTYPE svg PUBLIC "-//W3C//DTD SVG 1.1//EN" "http://www.w3.org/Graphics/SVG/1.1/DTD/svg11.dtd"><svg width="100%" height="100%" viewBox="0 0 540 540" version="1.1" xmlns="http://www.w3.org/2000/svg" xmlns:xlink="http://www.w3.org/1999/xlink" xml:space="preserve" xmlns:serif="http://www.serif.com/" style="fill-rule:evenodd;clip-rule:evenodd;stroke-linecap:round;stroke-linejoin:round;stroke-miterlimit:1.5;"><g id="Layer2"><path d="M298.901,93.985c14.886,-2.701 29.12,6.953 31.767,21.544c2.647,14.59 -7.289,28.629 -22.175,31.329c-14.885,2.701 -29.119,-6.953 -31.766,-21.543c-2.647,-14.591 7.289,-28.63 22.174,-31.33Z" style="fill:#ffd045;stroke:#6f3900;stroke-width:1.2px;"/><path d="M302.638,112.024c1.787,-0.613 3.934,0.882 4.792,3.337c0.858,2.454 0.104,4.944 -1.682,5.557c-1.787,0.612 -3.934,-0.883 -4.792,-3.338c-0.858,-2.454 -0.105,-4.944 1.682,-5.556Z" style="fill:#6f3900;stroke:#6f3900;stroke-width:4px;"/><path d="M302.522,113.407c0.381,-0.069 0.792,0.438 0.918,1.133c0.126,0.694 -0.081,1.313 -0.461,1.382c-0.381,0.069 -0.792,-0.438 -0.918,-1.132c-0.126,-0.695 0.081,-1.314 0.461,-1.383Z" style="fill:#e4e9f5;stroke:#e4e9f5;stroke-width:1.2px;"/><path d="M321.204,106.703c1.096,-0.397 2.632,1.03 3.428,3.183c0.796,2.153 0.552,4.224 -0.544,4.62c-1.096,0.397 -2.631,-1.029 -3.427,-3.183c-0.796,-2.153 -0.552,-4.223 0.543,-4.62Z" style="fill:#6f3900;stroke:#6f3900;stroke-width:2.99px;"/><path d="M321.63,107.981c0.226,-0.079 0.55,0.251 0.724,0.737c0.174,0.486 0.131,0.944 -0.095,1.024c-0.226,0.079 -0.55,-0.251 -0.724,-0.737c-0.174,-0.486 -0.131,-0.945 0.095,-1.024Z" style="fill:#e4e9f5;stroke:#e4e9f5;stroke-width:1.2px;"/><g id="Layer1"><path d="M327.995,126.414c0.286,0.098 0.873,-0.162 1.148,-0.236c0.93,-0.248 1.914,-0.313 2.851,-0.548c1.899,-0.474 3.842,-1.424 5,-3.06c1.292,-1.825 1.697,-3.978 1.774,-6.136c0.028,-0.761 0.081,-1.711 -0.28,-2.411c-0.621,-1.202 -1.656,-2.085 -2.877,-2.708c-1.794,-0.916 -3.304,-0.636 -5.126,-0.034c-0.56,0.184 -1.821,0.765 -2.299,1.117c-0.851,0.627 -1.624,1.158 -2.477,1.787c-1.587,1.17 -3.64,1.8 -5.176,3.038c-1.448,1.166 -2.184,2.796 -3.746,3.814c-2.096,1.364 -4.124,2.843 -6.422,3.872c-2.258,1.011 -4.24,2.604 -4.174,4.767c0.021,0.694 0.187,1.39 0.563,2.067c0.159,0.286 0.437,0.576 1.209,0.967c1.01,0.511 1.476,0.679 2.599,0.9c1.73,0.34 3.408,0.361 5.162,0.602c0.575,0.079 1.182,-0.061 1.761,0.019c2.856,0.391 5.927,0.321 8.805,0.094c1.171,-0.092 2.332,-0.3 3.486,-0.509c0.699,-0.127 1.553,-0.207 2.191,-0.551c0.363,-0.196 0.873,-0.37 1.21,-0.602c1.037,-0.716 2.406,-2.293 2.412,-3.655c0.004,-1.069 -0.552,-2.302 -1.488,-2.837c-0.331,-0.189 -0.732,-0.449 -1.122,-0.473c-0.064,-0.004 -0.319,-0.031 -0.314,-0.005c0.004,0.026 -4.67,0.721 -4.67,0.721Z" style="fill:#ff8e00;stroke:#6f3900;stroke-width:1.2px;"/><path d="M332.063,123.931c0.292,-0.152 0.464,-0.307 0.497,-0.327c0.241,-0.141 0.041,-0.005 0.259,-0.167c0.533,-0.392 1.033,-0.55 1.41,-1.083c0.232,-0.327 0.614,-0.642 0.839,-0.972c0.322,-0.472 0.56,-0.76 0.734,-1.031c0.34,-0.527 0.399,-1.043 0.495,-1.424c0.244,-0.971 0.152,-2.662 -1.3,-3.195c-0.485,-0.179 -1.409,0.129 -1.848,0.32c-0.932,0.406 -1.404,0.933 -2.273,1.452c-2.158,1.289 -3.504,3.341 -5.257,5.068c-1.64,1.617 -4.053,3.386 -6.094,4.444c-1.647,0.854 -3.255,1.507 -5.011,2.079c-0.477,0.155 -1.743,0.242 -2.138,0.533c-0.103,0.075 0.222,-0.065 0.342,-0.024c0.113,0.038 0.261,0.053 0.55,0.084c0.609,0.064 0.924,0.082 1.503,0.2c1.341,0.275 2.77,0.607 4.134,0.775c1.982,0.245 4.189,0.358 6.238,0.341c0.962,-0.007 2.157,-0.152 3.105,-0.298c1.206,-0.186 3.287,-0.802 4.245,-1.634c0.534,-0.463 0.267,-2.061 -0.509,-2.389c-0.894,-0.377 -2.026,-0.291 -2.904,0.007c-1.362,0.461 -3.066,0.339 -4.606,0.945c-1.175,0.462 6.499,-3.137 7.589,-3.704Z" style="fill:#ff6b00;stroke:#6f3900;stroke-width:1.2px;"/></g><path d="M275.179,145.397c-1.195,-0.052 -3.352,-0.192 -4.139,-0.291c-2.383,-0.298 -2.545,-0.058 -4.931,-0.405c-1.933,-0.282 -3.172,-1.734 -4.741,-2.653c-2.712,-1.589 -1.137,-5.844 -4.881,-5.808c-1.093,0.01 -1.8,0.708 -2.807,1.488c-1.816,1.406 -1.937,2.542 -2.317,3.129c-1.636,2.527 -1.612,3.402 -1.884,4.1c-2.341,6.003 -0.372,1.385 -1.806,6.304c-1.488,5.111 -2.009,10.211 -1.934,15.389c0.042,2.839 0.881,5.723 1.732,8.398c0.618,1.942 1.805,3.349 2.926,5.019c6.205,9.242 19.17,11.889 31.165,11.651c4.421,-0.088 5.541,0.032 9.911,-0.613c0.923,-0.136 2.38,-0.313 5.934,-0.821c3.678,-0.525 7.47,-1.702 11.004,-2.661c4.902,-1.331 9.69,-2.654 14.179,-4.956c2.958,-1.516 5.824,-3.151 8.188,-5.299c2.59,-2.354 4.39,-5.22 6.211,-8.058c0.65,-1.011 1.217,-3.386 1.35,-4.502c1.461,-12.221 -2.694,-19.933 -12.293,-25.557c-2.734,-1.602 -6.718,1.294 -9.861,2.357c-2.763,0.935 -5.41,1.711 -8.227,2.504c-4.506,1.269 -6.276,1.337 -10.8,1.241c-4.941,-0.105 -5.085,-0.698 -9.818,-2.563c-1.078,-0.425 -6.161,2.144 -7.57,2.081c-1.129,-0.05 -2.747,0.607 -4.591,0.526Z" style="fill:#ffd045;stroke:#6f3900;stroke-width:1.2px;"/><path d="M272.013,167.639c-0.687,0.003 -1.503,-0.222 -1.651,-0.28c-1.837,-0.728 -3.916,-1.403 -5.338,-2.817c-2.681,-2.667 -4.12,-8.756 -0.558,-11.368c0.988,-0.724 2.584,-0.525 3.631,-0.242c2.792,0.752 4.553,1.775 7.445,1.236c1.4,-0.26 2.78,-0.62 4.16,-0.967c4.977,-1.253 11.563,-3.737 16.134,0.105c0.861,0.724 1.518,1.664 2.164,2.582c0.646,0.919 1.241,1.886 1.7,2.91c0.834,1.86 1.366,4.354 1.468,6.382c0.145,2.872 -0.099,4.833 -0.954,7.586c-0.288,0.925 -0.675,1.825 -1.144,2.674c-3.384,6.128 -10.746,7.664 -17.252,7.134c-2.756,-0.225 -5.597,-0.735 -8.048,-2.061c-2.609,-1.411 -4.894,-3.632 -6.739,-5.91c-1.399,-1.728 -1.964,-2.647 -2.726,-4.735c-0.377,-1.032 -0.721,-2.081 -0.942,-3.156c-0.228,-1.108 -0.307,-2.242 -0.398,-3.37c-0.047,-0.582 -0.13,-1.193 0.039,-1.753c0.082,-0.27 -0.183,-0.265 0,-0c0.239,0.345 0.507,0.799 0.734,1.152c0.595,0.925 1.092,1.779 1.997,2.412c1.415,0.991 3.44,1.895 4.764,2.242c0.273,0.071 0.586,0.155 0.865,0.195c0.067,0.01 0.895,0.048 0.649,0.049Z" style="fill:#ffd045;stroke:#6f3900;stroke-width:1.2px;"/><path d="M287.144,199.555c-0.156,0.152 -0.376,-0.373 -0.392,-0.503c-0.065,-0.52 -0.153,-0.69 -0.12,-1.211c0.055,-0.858 0.281,-1.421 0.788,-2.487c0.432,-0.909 0.953,-2.107 0.853,-3.134c-0.071,-0.726 -1.247,-0.399 -1.721,-0.455c-0.736,-0.086 -1.532,-0.28 -2.188,0.154c-0.509,0.336 -0.609,1.503 -0.672,1.984c-0.207,1.572 -0.068,2.206 -0.274,3.339c-0.201,1.112 -0.165,2.81 -0.803,3.763c-0.422,0.631 -1.47,1.798 -1.047,2.592c0.297,0.56 1.088,0.437 1.612,0.584c0.94,0.262 1.791,0.305 2.711,0.53c0.757,0.185 1.757,0.794 2.269,1.34c0.255,0.272 1.548,1.019 1.863,1.224c0.909,0.594 1.307,0.685 2.408,0.898c0.372,0.071 0.954,-0.039 1.348,-0.034c0.663,0.009 1.157,-0.089 1.8,-0.472c1.168,-0.695 0.425,-2.009 -0.212,-2.687c-0.09,-0.096 -0.667,-0.643 -0.527,-0.788c0.239,-0.247 0.676,-0.002 0.967,-0.074c0.403,-0.1 0.834,-0.1 1.213,-0.214c0.471,-0.143 0.546,-0.256 0.882,-0.376c0.219,-0.078 0.567,-0.46 0.729,-0.628c0.208,-0.214 0.399,-0.464 0.392,-0.842c-0.009,-0.437 -0.55,-0.322 -0.829,-0.452c-0.608,-0.283 -0.878,-0.497 -1.723,-0.611c-0.608,-0.082 -1.034,-0.155 -1.265,-0.047c-0.31,0.146 0.573,-0.585 0.599,-0.615c0.119,-0.137 1.161,-1.547 0.597,-1.811c-0.218,-0.101 -1.08,0.112 -1.285,0.164c-0.999,0.258 -2.121,0.345 -3.135,0.621c-1.251,0.34 -2.312,0.791 -3.626,0.746c-0.472,-0.017 -0.937,-0.238 -1.212,-0.498c-0.09,-0.085 -0.162,-0.102 -0.08,-0.132c0.029,-0.01 0.08,0.132 0.08,0.132Z" style="fill:#ff8e00;stroke:#6f3900;stroke-width:1.2px;"/><path d="M321.501,192.1c-0.094,0.195 -0.482,-0.224 -0.542,-0.341c-0.239,-0.466 -0.381,-0.596 -0.528,-1.096c-0.243,-0.825 -0.223,-1.43 -0.112,-2.601c0.096,-0.999 0.176,-2.299 -0.271,-3.23c-0.316,-0.658 -1.312,0.044 -1.778,0.151c-0.723,0.166 -1.538,0.251 -2.008,0.879c-0.364,0.487 -0.058,1.616 0.048,2.089c0.344,1.546 0.693,2.095 0.888,3.228c0.191,1.112 0.808,2.694 0.534,3.804c-0.181,0.735 -0.767,2.182 -0.097,2.787c0.472,0.425 1.175,0.045 1.72,0.006c0.975,-0.069 1.791,-0.315 2.736,-0.412c0.776,-0.08 1.927,0.156 2.596,0.497c0.334,0.169 1.809,0.437 2.175,0.524c1.061,0.252 1.466,0.204 2.576,0.034c0.376,-0.057 0.886,-0.356 1.259,-0.483c0.628,-0.215 1.06,-0.473 1.534,-1.048c0.862,-1.046 -0.289,-2.03 -1.122,-2.453c-0.118,-0.06 -0.849,-0.38 -0.767,-0.563c0.141,-0.312 0.636,-0.229 0.886,-0.394c0.345,-0.229 0.751,-0.374 1.069,-0.609c0.395,-0.292 0.426,-0.424 0.702,-0.649c0.179,-0.147 0.376,-0.622 0.471,-0.834c0.122,-0.272 0.217,-0.57 0.08,-0.923c-0.158,-0.408 -0.628,-0.117 -0.935,-0.146c-0.671,-0.062 -0.999,-0.172 -1.833,0.004c-0.601,0.127 -1.027,0.202 -1.208,0.381c-0.243,0.241 0.339,-0.742 0.353,-0.778c0.065,-0.17 0.563,-1.844 -0.06,-1.902c-0.239,-0.022 -0.978,0.467 -1.153,0.586c-0.853,0.577 -1.88,1.035 -2.74,1.635c-1.062,0.74 -1.907,1.52 -3.16,1.918c-0.451,0.143 -0.964,0.092 -1.313,-0.061c-0.114,-0.049 -0.188,-0.041 -0.121,-0.096c0.024,-0.02 0.121,0.096 0.121,0.096Z" style="fill:#ff8e00;stroke:#6f3900;stroke-width:1.16px;"/></g><g id="Layer21" serif:id="Layer2"><path d="M219.258,143.308c-22.51,-4.863 -44.954,10.491 -50.09,34.265c-5.136,23.774 8.969,47.024 31.479,51.887c22.509,4.862 44.954,-10.491 50.09,-34.265c5.136,-23.775 -8.969,-47.024 -31.479,-51.887Z" style="fill:#ffd045;stroke:#6f3900;stroke-width:1.9px;"/><path d="M212.2,172.686c-2.68,-1.055 -6.069,1.325 -7.563,5.312c-1.494,3.987 -0.531,8.08 2.149,9.135c2.68,1.055 6.069,-1.325 7.563,-5.311c1.494,-3.987 0.531,-8.08 -2.149,-9.136Z" style="fill:#6f3900;stroke:#6f3900;stroke-width:4px;"/><path d="M212.191,174.934c-0.62,-0.134 -1.267,0.422 -1.444,1.24c-0.177,0.819 0.183,1.593 0.803,1.727c0.62,0.134 1.267,-0.422 1.444,-1.241c0.177,-0.819 -0.183,-1.592 -0.803,-1.726Z" style="fill:#e4e9f5;stroke:#e4e9f5;stroke-width:2.99px;"/><path d="M180.403,164.512c-1.112,-0.461 -2.944,1.527 -4.09,4.438c-1.145,2.91 -1.172,5.648 -0.061,6.109c1.112,0.461 2.944,-1.527 4.09,-4.438c1.145,-2.91 1.173,-5.648 0.061,-6.109Z" style="fill:#6f3900;stroke:#6f3900;stroke-width:2.99px;"/><path d="M179.988,165.85c-0.201,-0.081 -0.507,0.226 -0.683,0.684c-0.175,0.459 -0.154,0.897 0.048,0.978c0.201,0.081 0.507,-0.226 0.683,-0.684c0.175,-0.459 0.154,-0.897 -0.048,-0.978Z" style="fill:#e4e9f5;stroke:#e4e9f5;stroke-width:2.99px;"/><g id="Layer11" serif:id="Layer1"><path d="M172.427,195.449c-0.443,0.153 -1.319,-0.291 -1.734,-0.419c-1.399,-0.434 -2.896,-0.571 -4.309,-0.982c-2.862,-0.832 -5.755,-2.444 -7.399,-5.154c-1.833,-3.022 -2.29,-6.554 -2.245,-10.085c0.015,-1.244 0.005,-2.798 0.609,-3.932c1.037,-1.948 2.683,-3.359 4.592,-4.341c2.807,-1.443 5.09,-0.94 7.825,0.098c0.84,0.318 2.722,1.306 3.424,1.896c1.251,1.051 2.39,1.942 3.644,2.995c2.335,1.961 5.42,3.053 7.671,5.123c2.121,1.949 3.121,4.638 5.429,6.348c3.095,2.294 6.078,4.772 9.507,6.524c3.37,1.72 6.273,4.385 6.01,7.918c-0.084,1.134 -0.389,2.268 -1.014,3.363c-0.263,0.462 -0.709,0.928 -1.917,1.544c-1.579,0.805 -2.303,1.066 -4.034,1.394c-2.665,0.504 -5.227,0.487 -7.922,0.828c-0.883,0.112 -1.798,-0.135 -2.688,-0.022c-4.386,0.554 -9.068,0.346 -13.442,-0.11c-1.78,-0.186 -3.535,-0.561 -5.28,-0.938c-1.058,-0.228 -2.355,-0.385 -3.302,-0.967c-0.539,-0.331 -1.305,-0.63 -1.801,-1.02c-1.528,-1.202 -3.499,-3.821 -3.405,-6.047c0.074,-1.749 1.015,-3.748 2.483,-4.594c0.519,-0.299 1.151,-0.713 1.747,-0.74c0.098,-0.005 0.49,-0.04 0.48,0.002c-0.009,0.042 7.071,1.318 7.071,1.318Z" style="fill:#ff8e00;stroke:#6f3900;stroke-width:1.9px;"/><path d="M166.407,191.269c-0.434,-0.258 -0.685,-0.518 -0.734,-0.55c-0.357,-0.239 -0.061,-0.011 -0.383,-0.281c-0.783,-0.658 -1.534,-0.931 -2.069,-1.813c-0.329,-0.543 -0.889,-1.069 -1.208,-1.615c-0.455,-0.781 -0.796,-1.259 -1.042,-1.707c-0.479,-0.871 -0.53,-1.717 -0.648,-2.343c-0.299,-1.595 -0.031,-4.357 2.224,-5.185c0.753,-0.277 2.14,0.254 2.795,0.58c1.393,0.691 2.073,1.567 3.359,2.442c3.197,2.172 5.096,5.568 7.64,8.443c2.382,2.692 5.93,5.658 8.965,7.449c2.449,1.446 4.853,2.562 7.489,3.549c0.716,0.269 2.643,0.448 3.224,0.936c0.15,0.126 -0.336,-0.114 -0.522,-0.05c-0.174,0.06 -0.401,0.08 -0.845,0.121c-0.934,0.086 -1.416,0.106 -2.308,0.282c-2.067,0.409 -4.273,0.908 -6.365,1.143c-3.044,0.341 -6.42,0.459 -9.545,0.37c-1.467,-0.042 -3.28,-0.314 -4.715,-0.581c-1.826,-0.341 -4.955,-1.41 -6.355,-2.799c-0.779,-0.774 -0.252,-3.378 0.957,-3.89c1.392,-0.59 3.112,-0.415 4.431,0.098c2.043,0.795 4.651,0.647 6.956,1.683c1.759,0.791 -9.68,-5.323 -11.301,-6.282Z" style="fill:#ff6b00;stroke:#6f3900;stroke-width:1.9px;"/></g><path d="M251.588,228.074c1.827,-0.05 5.129,-0.214 6.338,-0.352c3.658,-0.416 3.887,-0.019 7.554,-0.515c2.971,-0.401 4.971,-2.738 7.434,-4.194c4.257,-2.516 2.174,-9.519 7.883,-9.348c1.667,0.049 2.694,1.211 4.172,2.516c2.665,2.355 2.764,4.216 3.3,5.187c2.306,4.18 2.204,5.609 2.567,6.76c3.12,9.883 0.463,2.274 2.28,10.36c1.888,8.399 2.299,16.753 1.795,25.216c-0.277,4.64 -1.774,9.33 -3.275,13.677c-1.089,3.156 -3.006,5.421 -4.841,8.117c-10.163,14.923 -30.144,18.861 -48.429,18.11c-6.738,-0.276 -8.456,-0.114 -15.075,-1.3c-1.399,-0.25 -3.609,-0.583 -8.993,-1.52c-5.574,-0.969 -11.27,-3.007 -16.591,-4.682c-7.379,-2.324 -14.586,-4.631 -21.262,-8.528c-4.399,-2.568 -8.649,-5.327 -12.095,-8.911c-3.775,-3.926 -6.306,-8.665 -8.872,-13.36c-0.914,-1.673 -1.601,-5.572 -1.72,-7.401c-1.311,-20.022 5.609,-32.505 20.679,-41.411c4.292,-2.537 10.152,2.318 14.868,4.15c4.146,1.612 8.127,2.959 12.365,4.341c6.781,2.211 9.475,2.375 16.386,2.354c7.547,-0.024 7.811,-0.989 15.173,-3.895c1.677,-0.662 9.239,3.691 11.393,3.631c1.727,-0.049 4.146,1.074 6.966,0.998Z" style="fill:#ffd045;stroke:#6f3900;stroke-width:1.9px;"/><path d="M254.746,264.53c1.049,0.026 2.311,-0.317 2.541,-0.408c2.858,-1.134 6.081,-2.175 8.357,-4.445c4.291,-4.279 6.944,-14.191 1.706,-18.567c-1.453,-1.214 -3.903,-0.936 -5.522,-0.506c-4.317,1.146 -7.08,2.765 -11.454,1.798c-2.115,-0.469 -4.194,-1.097 -6.274,-1.707c-7.499,-2.198 -17.362,-6.456 -24.625,-0.314c-1.368,1.158 -2.441,2.676 -3.496,4.157c-1.056,1.483 -2.035,3.045 -2.813,4.706c-1.413,3.015 -2.411,7.077 -2.719,10.389c-0.437,4.691 -0.213,7.905 0.885,12.431c0.369,1.521 0.892,3.003 1.544,4.406c4.703,10.119 15.82,12.853 25.788,12.181c4.222,-0.284 8.595,-1.032 12.434,-3.126c4.087,-2.229 7.74,-5.791 10.726,-9.459c2.266,-2.783 3.196,-4.268 4.517,-7.66c0.652,-1.675 1.257,-3.379 1.674,-5.13c0.431,-1.805 0.637,-3.657 0.86,-5.498c0.116,-0.951 0.289,-1.946 0.073,-2.868c-0.104,-0.443 0.299,-0.428 -0,0c-0.391,0.557 -0.834,1.291 -1.207,1.861c-0.977,1.495 -1.799,2.876 -3.227,3.884c-2.235,1.578 -5.392,2.994 -7.439,3.522c-0.421,0.108 -0.905,0.237 -1.334,0.293c-0.103,0.014 -1.369,0.051 -0.995,0.06Z" style="fill:#ffd045;stroke:#6f3900;stroke-width:1.9px;"/><path d="M229.26,316.253c0.226,0.253 0.601,-0.599 0.636,-0.811c0.138,-0.848 0.286,-1.123 0.274,-1.975c-0.02,-1.405 -0.322,-2.332 -1.015,-4.091c-0.591,-1.498 -1.297,-3.473 -1.066,-5.149c0.163,-1.184 1.933,-0.615 2.661,-0.691c1.129,-0.12 2.357,-0.413 3.326,0.317c0.751,0.565 0.816,2.476 0.877,3.263c0.197,2.577 -0.063,3.61 0.166,5.468c0.224,1.823 0.041,4.598 0.942,6.176c0.597,1.044 2.108,2.984 1.404,4.269c-0.496,0.906 -1.693,0.682 -2.505,0.906c-1.453,0.4 -2.755,0.444 -4.176,0.785c-1.168,0.28 -2.74,1.245 -3.562,2.122c-0.41,0.437 -2.44,1.62 -2.934,1.946c-1.433,0.943 -2.046,1.08 -3.743,1.394c-0.573,0.107 -1.453,-0.091 -2.054,-0.095c-1.012,-0.006 -1.759,-0.18 -2.711,-0.825c-1.731,-1.173 -0.497,-3.298 0.525,-4.388c0.145,-0.154 1.067,-1.03 0.864,-1.271c-0.347,-0.411 -1.031,-0.024 -1.47,-0.151c-0.607,-0.175 -1.266,-0.188 -1.835,-0.387c-0.709,-0.247 -0.814,-0.435 -1.318,-0.64c-0.328,-0.134 -0.83,-0.769 -1.065,-1.048c-0.301,-0.357 -0.574,-0.771 -0.534,-1.39c0.046,-0.714 0.863,-0.509 1.298,-0.713c0.95,-0.445 1.378,-0.786 2.675,-0.947c0.934,-0.117 1.589,-0.222 1.934,-0.039c0.462,0.247 -0.83,-0.973 -0.867,-1.023c-0.172,-0.229 -1.656,-2.565 -0.775,-2.979c0.34,-0.159 1.639,0.215 1.948,0.307c1.505,0.451 3.21,0.627 4.737,1.109c1.883,0.594 3.468,1.363 5.476,1.329c0.722,-0.013 1.448,-0.36 1.887,-0.778c0.144,-0.137 0.256,-0.162 0.133,-0.213c-0.044,-0.018 -0.133,0.213 -0.133,0.213Z" style="fill:#ff8e00;stroke:#6f3900;stroke-width:1.9px;"/><path d="M177.397,303.032c0.13,0.322 0.753,-0.352 0.853,-0.541c0.4,-0.755 0.626,-0.963 0.888,-1.777c0.433,-1.341 0.448,-2.33 0.366,-4.249c-0.07,-1.635 -0.094,-3.764 0.658,-5.272c0.531,-1.065 1.998,0.111 2.701,0.3c1.09,0.293 2.328,0.457 2.997,1.498c0.519,0.807 -0.033,2.644 -0.229,3.414c-0.642,2.517 -1.215,3.404 -1.598,5.251c-0.376,1.811 -1.436,4.38 -1.102,6.202c0.222,1.207 1.007,3.591 -0.061,4.559c-0.752,0.681 -1.796,0.038 -2.624,-0.041c-1.483,-0.142 -2.71,-0.569 -4.144,-0.756c-1.178,-0.154 -2.952,0.197 -3.999,0.733c-0.522,0.268 -2.792,0.661 -3.358,0.793c-1.637,0.38 -2.252,0.289 -3.934,-0.022c-0.568,-0.105 -1.324,-0.61 -1.883,-0.829c-0.942,-0.37 -1.582,-0.804 -2.262,-1.759c-1.237,-1.735 0.594,-3.309 1.896,-3.977c0.184,-0.094 1.324,-0.594 1.212,-0.896c-0.19,-0.515 -0.953,-0.394 -1.321,-0.672c-0.509,-0.385 -1.119,-0.633 -1.585,-1.027c-0.581,-0.49 -0.619,-0.706 -1.023,-1.082c-0.263,-0.245 -0.527,-1.029 -0.656,-1.378c-0.166,-0.447 -0.288,-0.939 -0.052,-1.512c0.271,-0.661 0.967,-0.172 1.437,-0.21c1.028,-0.081 1.537,-0.251 2.797,0.062c0.907,0.226 1.551,0.361 1.814,0.66c0.352,0.4 -0.461,-1.223 -0.48,-1.284c-0.087,-0.279 -0.72,-3.031 0.234,-3.107c0.367,-0.029 1.458,0.793 1.716,0.992c1.258,0.969 2.79,1.75 4.058,2.756c1.564,1.242 2.794,2.542 4.677,3.231c0.677,0.248 1.464,0.179 2.007,-0.06c0.178,-0.078 0.291,-0.062 0.192,-0.154c-0.035,-0.033 -0.192,0.154 -0.192,0.154Z" style="fill:#ff8e00;stroke:#6f3900;stroke-width:1.9px;"/></g><g id="Layer22" serif:id="Layer2"><ellipse cx="339.335" cy="275.15" rx="80.339" ry="79.669" style="fill:#ffd045;stroke:#6f3900;stroke-width:2.91px;"/><path d="M340.674,250.087c5.473,-0.841 10.883,4.658 12.073,12.273c1.191,7.615 -2.285,14.481 -7.758,15.322c-5.472,0.842 -10.882,-4.657 -12.073,-12.272c-1.191,-7.616 2.285,-14.481 7.758,-15.323Z" style="fill:#6f3900;stroke:#6f3900;stroke-width:4px;"/><ellipse cx="339.777" cy="256.806" rx="2.214" ry="2.744" style="fill:#e4e9f5;stroke:#e4e9f5;stroke-width:2.99px;"/><path d="M403.839,247.781c2.28,-0.391 4.921,3.823 5.893,9.403c0.973,5.58 -0.089,10.427 -2.369,10.818c-2.279,0.391 -4.92,-3.822 -5.892,-9.403c-0.973,-5.58 0.089,-10.427 2.368,-10.818Z" style="fill:#6f3900;stroke:#6f3900;stroke-width:2.99px;"/><path d="M404.077,250.304c0.412,-0.067 0.863,0.592 1.006,1.469c0.144,0.877 -0.074,1.643 -0.486,1.71c-0.413,0.066 -0.864,-0.592 -1.007,-1.47c-0.144,-0.877 0.074,-1.643 0.487,-1.709Z" style="fill:#e4e9f5;stroke:#e4e9f5;stroke-width:2.99px;"/><g id="Layer12" serif:id="Layer1"><path d="M406.273,305.494c0.77,0.438 2.601,-0.011 3.434,-0.08c2.81,-0.232 5.681,0.097 8.508,-0.09c5.725,-0.378 11.825,-2.123 16.02,-6.283c4.68,-4.641 6.975,-10.707 8.327,-16.963c0.476,-2.204 1.128,-4.947 0.452,-7.181c-1.161,-3.838 -3.684,-6.96 -6.878,-9.424c-4.696,-3.621 -9.196,-3.604 -14.767,-2.814c-1.711,0.242 -5.653,1.269 -7.215,2.044c-2.781,1.379 -5.287,2.518 -8.076,3.901c-5.191,2.574 -11.441,3.326 -16.519,6.123c-4.783,2.636 -7.76,7.005 -12.798,9.146c-6.757,2.871 -13.379,6.113 -20.546,7.898c-7.04,1.754 -13.588,5.354 -14.529,11.698c-0.303,2.036 -0.19,4.156 0.541,6.33c0.308,0.917 0.958,1.91 2.981,3.459c2.644,2.026 3.9,2.764 7.025,4.004c4.809,1.907 9.639,2.857 14.572,4.487c1.617,0.535 3.439,0.449 5.068,0.988c8.029,2.654 16.925,4.073 25.343,4.936c3.425,0.352 6.881,0.359 10.318,0.359c2.084,0 4.589,0.219 6.608,-0.448c1.149,-0.38 2.712,-0.616 3.804,-1.116c3.364,-1.539 8.139,-5.415 8.867,-9.386c0.572,-3.119 -0.387,-7.009 -2.806,-9.065c-0.854,-0.726 -1.875,-1.699 -2.987,-1.975c-0.182,-0.045 -0.905,-0.258 -0.905,-0.179c0,0.078 -13.842,-0.369 -13.842,-0.369Z" style="fill:#ff8e00;stroke:#6f3900;stroke-width:2.74px;"/><path d="M419.301,300.404c0.922,-0.289 1.501,-0.653 1.606,-0.691c0.768,-0.286 0.12,0.005 0.835,-0.35c1.742,-0.864 3.264,-1.06 4.63,-2.414c0.841,-0.834 2.108,-1.549 2.93,-2.394c1.174,-1.205 2.011,-1.92 2.656,-2.617c1.256,-1.357 1.696,-2.832 2.172,-3.893c1.212,-2.704 1.831,-7.687 -2.077,-10.012c-1.304,-0.776 -4.13,-0.368 -5.496,-0.042c-2.902,0.69 -4.539,1.979 -7.315,3.033c-6.9,2.618 -11.854,7.893 -17.812,12.003c-5.577,3.848 -13.459,7.734 -19.9,9.741c-5.198,1.62 -10.174,2.674 -15.538,3.413c-1.456,0.2 -5.155,-0.219 -6.447,0.422c-0.333,0.165 0.677,-0.073 1.001,0.111c0.304,0.172 0.723,0.294 1.543,0.537c1.722,0.509 2.62,0.727 4.228,1.379c3.724,1.511 7.672,3.236 11.515,4.449c5.59,1.765 11.896,3.263 17.813,4.298c2.778,0.486 6.301,0.697 9.109,0.773c3.577,0.096 9.9,-0.599 13.1,-2.52c1.78,-1.07 1.846,-5.873 -0.221,-7.24c-2.38,-1.573 -5.688,-1.921 -8.378,-1.518c-4.169,0.626 -9.017,-0.632 -13.776,0.32c-3.631,0.726 20.382,-5.711 23.822,-6.788Z" style="fill:#ff6b00;stroke:#6f3900;stroke-width:2.74px;"/></g><path d="M244.025,332.924c-3.418,-0.785 -9.566,-2.336 -11.785,-3.041c-6.715,-2.132 -7.307,-1.518 -14.007,-3.794c-5.428,-1.844 -8.241,-6.736 -12.285,-10.248c-6.99,-6.072 -0.222,-17.651 -11.036,-19.529c-3.157,-0.549 -5.563,1.112 -8.875,2.855c-5.973,3.143 -6.915,6.393 -8.319,7.905c-6.039,6.506 -6.429,9.071 -7.579,10.964c-9.89,16.274 -1.797,3.843 -8.504,17.437c-6.967,14.121 -11.138,28.725 -13.629,43.873c-1.366,8.305 -0.455,17.165 0.601,25.419c0.766,5.992 3.453,10.726 5.812,16.191c13.059,30.249 49.063,44.834 83.78,50.489c12.794,2.083 15.961,3.025 28.901,3.457c2.733,0.091 7.029,0.347 17.542,0.747c10.884,0.414 22.434,-1.012 33.128,-1.941c14.834,-1.289 29.334,-2.615 43.483,-6.952c9.322,-2.858 18.444,-6.112 26.387,-11.129c8.7,-5.497 15.39,-12.905 22.127,-20.221c2.402,-2.607 5.279,-9.235 6.248,-12.422c10.607,-34.88 2.659,-59.579 -22.082,-81.069c-7.046,-6.121 -20.048,0.22 -29.668,1.658c-8.459,1.265 -16.5,2.126 -25.037,2.95c-13.66,1.318 -18.799,0.58 -31.795,-2.096c-14.194,-2.923 -14.3,-4.729 -26.973,-12.674c-2.888,-1.81 -18.888,2.995 -22.919,2.066c-3.229,-0.744 -8.24,0.316 -13.516,-0.895Z" style="fill:#ffd045;stroke:#6f3900;stroke-width:2.74px;"/><path d="M223.26,396.138c-1.984,-0.355 -4.22,-1.441 -4.616,-1.69c-4.918,-3.096 -10.56,-6.166 -13.921,-11.045c-6.336,-9.199 -7.3,-27.727 4.338,-33.461c3.229,-1.591 7.727,-0.163 10.599,1.214c7.659,3.674 12.2,7.589 20.825,7.549c4.172,-0.02 8.339,-0.337 12.502,-0.62c15.006,-1.021 35.301,-4.781 46.472,8.845c2.105,2.568 3.507,5.66 4.889,8.679c1.385,3.025 2.592,6.158 3.382,9.39c1.433,5.868 1.66,13.427 0.894,19.397c-1.085,8.455 -2.814,14.048 -6.721,21.628c-1.313,2.546 -2.9,4.967 -4.698,7.197c-12.965,16.085 -34.999,16.672 -53.485,11.68c-7.83,-2.115 -15.756,-5.105 -22.13,-10.27c-6.786,-5.5 -12.213,-13.188 -16.342,-20.81c-3.132,-5.783 -4.279,-8.762 -5.385,-15.259c-0.547,-3.209 -0.992,-6.452 -1.066,-9.706c-0.076,-3.353 0.289,-6.704 0.617,-10.042c0.169,-1.725 0.248,-3.549 1.03,-5.096c0.375,-0.743 -0.391,-0.87 -0,0c0.508,1.134 1.043,2.599 1.513,3.75c1.231,3.014 2.217,5.768 4.496,8.095c3.564,3.64 8.929,7.348 12.567,9.062c0.748,0.352 1.608,0.764 2.392,1.028c0.188,0.063 2.555,0.612 1.848,0.485Z" style="fill:#ffd045;stroke:#6f3900;stroke-width:2.74px;"/><path d="M250.196,497.264c-0.528,0.361 -0.888,-1.287 -0.866,-1.675c0.084,-1.551 -0.082,-2.094 0.286,-3.595c0.609,-2.475 1.554,-3.999 3.574,-6.841c1.721,-2.422 3.852,-5.642 4.1,-8.692c0.174,-2.154 -3.388,-1.824 -4.727,-2.238c-2.076,-0.641 -4.269,-1.628 -6.389,-0.709c-1.644,0.712 -2.543,4.064 -2.977,5.432c-1.419,4.478 -1.35,6.402 -2.536,9.599c-1.163,3.136 -1.946,8.109 -4.284,10.552c-1.549,1.619 -5.18,4.469 -4.378,7.01c0.565,1.789 2.91,1.851 4.346,2.556c2.572,1.262 5.005,1.837 7.541,2.982c2.084,0.941 4.65,3.246 5.841,5.109c0.594,0.929 3.932,3.794 4.731,4.558c2.313,2.214 3.411,2.689 6.476,3.893c1.035,0.407 2.773,0.393 3.904,0.616c1.909,0.376 3.386,0.352 5.44,-0.424c3.733,-1.411 2.276,-5.636 0.794,-7.953c-0.209,-0.328 -1.588,-2.228 -1.108,-2.576c0.819,-0.594 1.95,0.351 2.827,0.294c1.214,-0.078 2.459,0.151 3.61,0.018c1.435,-0.167 1.709,-0.459 2.741,-0.63c0.673,-0.111 1.875,-1.042 2.431,-1.445c0.711,-0.516 1.393,-1.143 1.57,-2.252c0.203,-1.279 -1.418,-1.228 -2.153,-1.754c-1.606,-1.151 -2.274,-1.916 -4.649,-2.697c-1.71,-0.561 -2.9,-0.998 -3.624,-0.805c-0.971,0.259 1.958,-1.404 2.049,-1.478c0.415,-0.338 4.158,-3.901 2.668,-4.968c-0.574,-0.411 -3.172,-0.246 -3.791,-0.201c-3.016,0.222 -6.296,-0.117 -9.365,0.151c-3.786,0.331 -7.081,1.086 -10.847,0.258c-1.354,-0.298 -2.578,-1.189 -3.235,-2.095c-0.214,-0.296 -0.415,-0.384 -0.163,-0.426c0.09,-0.015 0.163,0.426 0.163,0.426Z" style="fill:#ff8e00;stroke:#6f3900;stroke-width:2.91px;"/><path d="M353.178,493.701c-0.375,0.519 -1.273,-0.91 -1.384,-1.282c-0.447,-1.488 -0.788,-1.942 -0.951,-3.479c-0.268,-2.535 0.105,-4.289 1.04,-7.647c0.796,-2.863 1.708,-6.616 0.906,-9.569c-0.567,-2.085 -3.806,-0.565 -5.206,-0.5c-2.171,0.101 -4.568,-0.082 -6.25,1.502c-1.305,1.228 -1.013,4.686 -0.956,6.12c0.184,4.694 0.903,6.48 0.872,9.889c-0.029,3.345 0.922,8.288 -0.448,11.381c-0.907,2.048 -3.356,5.961 -1.739,8.079c1.14,1.491 3.365,0.753 4.956,0.929c2.848,0.314 5.332,0.029 8.105,0.245c2.28,0.178 5.476,1.475 7.229,2.823c0.874,0.673 4.986,2.235 5.997,2.682c2.928,1.297 4.122,1.372 7.413,1.464c1.112,0.031 2.741,-0.572 3.881,-0.746c1.923,-0.294 3.305,-0.818 4.973,-2.245c3.033,-2.594 0.228,-6.074 -1.952,-7.751c-0.308,-0.237 -2.251,-1.556 -1.917,-2.047c0.568,-0.837 1.954,-0.332 2.76,-0.682c1.115,-0.486 2.363,-0.693 3.401,-1.21c1.293,-0.643 1.452,-1.011 2.365,-1.522c0.594,-0.333 1.409,-1.616 1.795,-2.184c0.494,-0.727 0.923,-1.549 0.713,-2.651c-0.243,-1.273 -1.751,-0.674 -2.621,-0.92c-1.901,-0.537 -2.789,-1.03 -5.288,-0.958c-1.799,0.052 -3.067,0.045 -3.682,0.472c-0.825,0.574 1.365,-1.985 1.425,-2.085c0.276,-0.459 2.587,-5.081 0.824,-5.579c-0.68,-0.192 -3.067,0.845 -3.634,1.098c-2.762,1.232 -5.962,2.027 -8.757,3.321c-3.45,1.596 -6.293,3.425 -10.117,3.924c-1.374,0.179 -2.828,-0.244 -3.753,-0.872c-0.303,-0.206 -0.521,-0.221 -0.299,-0.346c0.08,-0.044 0.299,0.346 0.299,0.346Z" style="fill:#ff8e00;stroke:#6f3900;stroke-width:2.91px;"/></g></svg>